<?xml version="1.0" encoding="utf-8"?>
<!-- Generator: Adobe Illustrator 23.0.1, SVG Export Plug-In . SVG Version: 6.00 Build 0)  -->
<svg version="1.1" id="Layer_1" xmlns="http://www.w3.org/2000/svg" xmlns:xlink="http://www.w3.org/1999/xlink" x="0px" y="0px"
	 viewBox="0 0 497.5 122.49" style="enable-background:new 0 0 497.5 122.49;" xml:space="preserve">
<style type="text/css">
	.st0{fill:#BE1E2D;stroke:#BE1E2D;stroke-width:4;stroke-miterlimit:10;}
</style>
<g>
	<g>
		<path class="st0" d="M13.46,20.5c9.45-0.05,14.17-0.08,23.62-0.13c3.45,18.58,6.93,37.15,10.45,55.72
			c0.12-0.01,0.18-0.02,0.3-0.03c3.49-18.61,7.02-37.2,10.61-55.79c9.45-0.04,14.17-0.06,23.62-0.1C82,44.89,81.95,69.61,81.9,94.33
			c-6.25,0.64-9.38,0.98-15.63,1.68c0.03-19.13,0.07-38.25,0.1-57.38c-0.12,0-0.18,0.01-0.3,0.01c-4.11,19.59-8.14,39.19-12.12,58.8
			c-5.53,0.66-8.29,1.01-13.81,1.72c-4.05-19.73-8.03-39.48-11.96-59.24c-0.12,0-0.18,0.01-0.3,0.01
			c-0.01,20.29-0.03,40.58-0.04,60.86c-5.76,0.79-8.64,1.19-14.39,2.03C13.45,75.39,13.46,47.94,13.46,20.5z"/>
		<path class="st0" d="M99.5,88.89c-4.3-2.8-6.45-7.15-6.44-13c0.03-12.81,0.06-25.62,0.09-38.43c0.01-5.85,2.18-10.42,6.5-13.63
			c4.32-3.21,10.54-4.79,18.67-4.81c8.12-0.02,14.34,1.52,18.64,4.54c4.3,3.02,6.45,7.28,6.44,12.82
			c-0.03,12.13-0.05,24.26-0.08,36.39c-0.01,5.54-2.18,9.93-6.5,13.27c-4.32,3.33-10.55,5.32-18.67,5.98
			C110.01,92.69,103.8,91.69,99.5,88.89z M126.76,74.37c0.03-12.79,0.06-25.59,0.09-38.38c0.01-4.62-2.84-6.9-8.56-6.82
			c-5.72,0.07-8.58,2.47-8.59,7.18c-0.03,13.03-0.06,26.07-0.09,39.1c-0.01,4.71,2.84,6.84,8.56,6.44
			C123.88,81.48,126.75,78.99,126.76,74.37z"/>
		<path class="st0" d="M149.9,19.95c6.68-0.02,10.02-0.02,16.7-0.04c3.56,17.44,7.14,34.87,10.74,52.31c0.12,0,0.18-0.01,0.3-0.01
			c3.63-17.45,7.27-34.89,10.92-52.33c6.08-0.01,9.12-0.01,15.2-0.02c-5.38,22.35-10.73,44.71-16.05,67.07
			c-8.8,0.33-13.2,0.52-21.99,0.97C160.39,65.26,155.12,42.61,149.9,19.95z"/>
		<path class="st0" d="M211.74,19.85c6.62-0.01,9.93-0.01,16.55-0.01c-0.01,22.03-0.02,44.06-0.04,66.09
			c-6.63,0.08-9.95,0.14-16.58,0.28C211.69,64.09,211.71,41.97,211.74,19.85z"/>
		<path class="st0" d="M240.62,19.83c15.05,0,30.09,0.01,45.14,0.02c0,3.79,0.01,5.69,0.01,9.49c-9.53-0.04-19.06-0.07-28.59-0.07
			c0,6.98,0,10.47,0,17.45c9.09,0.02,13.64,0.05,22.73,0.13c0,3.79,0,5.68,0.01,9.47c-9.1-0.1-13.64-0.14-22.74-0.17
			c0,8.11,0,12.16,0.01,20.27c9.54,0.04,19.09,0.16,28.63,0.36c0,3.79,0.01,5.69,0.01,9.49c-15.07-0.3-30.14-0.44-45.22-0.43
			C240.61,63.83,240.62,41.83,240.62,19.83z"/>
		<path class="st0" d="M295.23,19.86c14.59,0.02,29.19,0.04,43.78,0.07c0.01,3.91,0.01,5.87,0.02,9.78
			c-10.89-0.11-16.34-0.15-27.24-0.23c0.01,7.49,0.02,11.23,0.03,18.72c8.55,0.15,12.83,0.24,21.38,0.44
			c0.01,3.89,0.01,5.84,0.02,9.74c-8.55-0.26-12.83-0.38-21.38-0.58c0.02,9.76,0.03,19.52,0.05,29.28
			c-6.63-0.26-9.94-0.38-16.57-0.57C295.29,64.3,295.26,42.08,295.23,19.86z"/>
		<path class="st0" d="M346.99,19.95c6.62,0.02,9.93,0.02,16.55,0.04c0.05,19.99,0.09,39.99,0.14,59.98
			c10.9,0.67,16.34,1.05,27.23,1.89c0.01,4.12,0.01,6.18,0.02,10.3c-14.59-1.24-29.18-2.34-43.8-3.29
			C347.09,65.9,347.04,42.92,346.99,19.95z"/>
		<path class="st0" d="M398.74,20.11c6.62,0.02,9.93,0.04,16.55,0.06c0.05,24.78,0.1,49.56,0.15,74.35
			c-6.61-0.69-9.92-1.01-16.54-1.63C398.85,68.63,398.79,44.37,398.74,20.11z"/>
		<path class="st0" d="M442.27,58.03c-5.99-12.66-12.04-25.28-18.26-37.82c6.98,0.03,10.47,0.05,17.45,0.08
			c4.47,9.99,6.7,15.06,11.16,25.39c0.12,0.01,0.18,0.01,0.3,0.01c4.56-9.94,6.84-14.99,11.4-25.29c6.26,0.03,9.39,0.05,15.64,0.08
			c-5.95,12.99-12.01,25.92-18.17,38.81c6.53,14.38,12.91,28.83,19.08,43.37c-6.96-1.01-10.43-1.49-17.4-2.43
			c-3.93-9.65-7.95-19.28-12.04-28.87c-0.12-0.01-0.18-0.02-0.3-0.03c-4.03,8.62-8.12,17.22-12.28,25.79
			c-6.25-0.74-9.37-1.1-15.62-1.78C429.72,82.98,436.03,70.52,442.27,58.03z"/>
	</g>
</g>
</svg>
